<mxfile host="app.diagrams.net" modified="2021-06-16T07:31:30.791Z" agent="5.0 (Macintosh; Intel Mac OS X 10_14_5) AppleWebKit/537.36 (KHTML, like Gecko) Chrome/77.0.3865.90 Safari/537.36" etag="SegiAGONE_7bJyejEDah" version="14.7.0" type="github">
  <diagram id="Q3C56MzuJ8pamo9sv9sB" name="Page-1">
    <mxGraphModel dx="1426" dy="794" grid="1" gridSize="10" guides="1" tooltips="1" connect="1" arrows="1" fold="1" page="1" pageScale="1" pageWidth="1654" pageHeight="2336" math="0" shadow="0">
      <root>
        <mxCell id="0" />
        <mxCell id="1" parent="0" />
        <mxCell id="vFhie0f-nXan7GNJMNwe-1" value="" style="ellipse;whiteSpace=wrap;html=1;" vertex="1" parent="1">
          <mxGeometry x="320" y="290" width="790" height="390" as="geometry" />
        </mxCell>
        <mxCell id="vFhie0f-nXan7GNJMNwe-4" value="" style="shape=requiredInterface;html=1;verticalLabelPosition=bottom;dashed=1;strokeWidth=2;fillColor=none;fontColor=#FF3333;align=left;strokeColor=#333333;" vertex="1" parent="1">
          <mxGeometry x="360" y="530" width="130" height="230" as="geometry" />
        </mxCell>
        <mxCell id="vFhie0f-nXan7GNJMNwe-5" value="" style="shape=requiredInterface;html=1;verticalLabelPosition=bottom;dashed=1;strokeWidth=2;fillColor=none;fontColor=#FF3333;align=left;rotation=87;strokeColor=#333333;" vertex="1" parent="1">
          <mxGeometry x="633.91" y="120.28" width="98.69" height="546.82" as="geometry" />
        </mxCell>
      </root>
    </mxGraphModel>
  </diagram>
</mxfile>
